<mxfile host="app.diagrams.net" modified="2021-08-13T02:02:51.772Z" agent="5.0 (Windows NT 10.0; Win64; x64) AppleWebKit/537.36 (KHTML, like Gecko) Chrome/92.0.4515.107 Safari/537.36 OPR/78.0.4093.112" etag="l9KATExWl4zQCoDF5gf2" version="14.9.6" type="github">
  <diagram id="UVsXHjhP608Ynh_tWcQ3" name="Page-1">
    <mxGraphModel dx="2415" dy="1986" grid="1" gridSize="10" guides="1" tooltips="1" connect="1" arrows="1" fold="1" page="1" pageScale="1" pageWidth="827" pageHeight="1169" math="0" shadow="0">
      <root>
        <mxCell id="0" />
        <mxCell id="1" parent="0" />
        <mxCell id="To-FPGZU-gQmSsZxfXFd-3" style="edgeStyle=orthogonalEdgeStyle;rounded=0;orthogonalLoop=1;jettySize=auto;html=1;exitX=0.5;exitY=0;exitDx=0;exitDy=0;entryX=0.5;entryY=0;entryDx=0;entryDy=0;curved=1;" edge="1" parent="1" source="To-FPGZU-gQmSsZxfXFd-1" target="To-FPGZU-gQmSsZxfXFd-5">
          <mxGeometry relative="1" as="geometry">
            <mxPoint x="444.9999999999998" y="70.47058823529414" as="targetPoint" />
          </mxGeometry>
        </mxCell>
        <mxCell id="To-FPGZU-gQmSsZxfXFd-1" value="&lt;font size=&quot;1&quot;&gt;&lt;b style=&quot;font-size: 31px&quot;&gt;A&lt;/b&gt;&lt;/font&gt;" style="ellipse;whiteSpace=wrap;html=1;aspect=fixed;" vertex="1" parent="1">
          <mxGeometry x="165" y="30" width="80" height="80" as="geometry" />
        </mxCell>
        <mxCell id="To-FPGZU-gQmSsZxfXFd-2" value="" style="triangle;whiteSpace=wrap;html=1;" vertex="1" parent="1">
          <mxGeometry x="105" y="30" width="60" height="80" as="geometry" />
        </mxCell>
        <mxCell id="To-FPGZU-gQmSsZxfXFd-4" value="&lt;b&gt;&lt;font style=&quot;font-size: 23px&quot;&gt;GO1&lt;/font&gt;&lt;/b&gt;" style="text;html=1;strokeColor=none;fillColor=none;align=center;verticalAlign=middle;whiteSpace=wrap;rounded=0;" vertex="1" parent="1">
          <mxGeometry x="285" y="-30" width="50" height="50" as="geometry" />
        </mxCell>
        <mxCell id="To-FPGZU-gQmSsZxfXFd-6" style="edgeStyle=orthogonalEdgeStyle;rounded=0;orthogonalLoop=1;jettySize=auto;html=1;exitX=0.5;exitY=1;exitDx=0;exitDy=0;entryX=0.5;entryY=1;entryDx=0;entryDy=0;curved=1;" edge="1" parent="1" source="To-FPGZU-gQmSsZxfXFd-5" target="To-FPGZU-gQmSsZxfXFd-1">
          <mxGeometry relative="1" as="geometry" />
        </mxCell>
        <mxCell id="To-FPGZU-gQmSsZxfXFd-11" style="edgeStyle=orthogonalEdgeStyle;curved=1;rounded=0;orthogonalLoop=1;jettySize=auto;html=1;exitX=0.5;exitY=0;exitDx=0;exitDy=0;entryX=0.5;entryY=0;entryDx=0;entryDy=0;" edge="1" parent="1" source="To-FPGZU-gQmSsZxfXFd-5" target="To-FPGZU-gQmSsZxfXFd-10">
          <mxGeometry relative="1" as="geometry" />
        </mxCell>
        <mxCell id="To-FPGZU-gQmSsZxfXFd-5" value="&lt;b style=&quot;font-size: 31px&quot;&gt;B&lt;/b&gt;" style="ellipse;whiteSpace=wrap;html=1;aspect=fixed;" vertex="1" parent="1">
          <mxGeometry x="375" y="30" width="80" height="80" as="geometry" />
        </mxCell>
        <mxCell id="To-FPGZU-gQmSsZxfXFd-7" value="&lt;b&gt;&lt;font style=&quot;font-size: 23px&quot;&gt;END1&lt;/font&gt;&lt;/b&gt;" style="text;html=1;strokeColor=none;fillColor=none;align=center;verticalAlign=middle;whiteSpace=wrap;rounded=0;" vertex="1" parent="1">
          <mxGeometry x="285" y="120" width="50" height="50" as="geometry" />
        </mxCell>
        <mxCell id="To-FPGZU-gQmSsZxfXFd-9" value="&lt;b style=&quot;font-size: 31px&quot;&gt;A&lt;/b&gt;" style="ellipse;whiteSpace=wrap;html=1;aspect=fixed;" vertex="1" parent="1">
          <mxGeometry x="180" y="45" width="50" height="50" as="geometry" />
        </mxCell>
        <mxCell id="To-FPGZU-gQmSsZxfXFd-13" style="edgeStyle=orthogonalEdgeStyle;rounded=0;orthogonalLoop=1;jettySize=auto;html=1;exitX=0.5;exitY=1;exitDx=0;exitDy=0;curved=1;" edge="1" parent="1" source="To-FPGZU-gQmSsZxfXFd-10">
          <mxGeometry relative="1" as="geometry">
            <mxPoint x="205" y="110" as="targetPoint" />
            <Array as="points">
              <mxPoint x="575" y="190" />
              <mxPoint x="205" y="190" />
            </Array>
          </mxGeometry>
        </mxCell>
        <mxCell id="To-FPGZU-gQmSsZxfXFd-10" value="&lt;b style=&quot;font-size: 31px&quot;&gt;C&lt;/b&gt;" style="ellipse;whiteSpace=wrap;html=1;aspect=fixed;" vertex="1" parent="1">
          <mxGeometry x="535" y="30" width="80" height="80" as="geometry" />
        </mxCell>
        <mxCell id="To-FPGZU-gQmSsZxfXFd-12" value="&lt;b&gt;&lt;font style=&quot;font-size: 23px&quot;&gt;PROBLEM1&lt;/font&gt;&lt;/b&gt;" style="text;html=1;strokeColor=none;fillColor=none;align=center;verticalAlign=middle;whiteSpace=wrap;rounded=0;" vertex="1" parent="1">
          <mxGeometry x="475" y="-30" width="50" height="50" as="geometry" />
        </mxCell>
        <mxCell id="To-FPGZU-gQmSsZxfXFd-14" value="&lt;b&gt;&lt;font style=&quot;font-size: 23px&quot;&gt;FREE1&lt;/font&gt;&lt;/b&gt;" style="text;html=1;strokeColor=none;fillColor=none;align=center;verticalAlign=middle;whiteSpace=wrap;rounded=0;" vertex="1" parent="1">
          <mxGeometry x="370" y="190" width="50" height="50" as="geometry" />
        </mxCell>
        <mxCell id="To-FPGZU-gQmSsZxfXFd-15" style="edgeStyle=orthogonalEdgeStyle;rounded=0;orthogonalLoop=1;jettySize=auto;html=1;exitX=0.5;exitY=0;exitDx=0;exitDy=0;entryX=0.5;entryY=0;entryDx=0;entryDy=0;curved=1;" edge="1" parent="1" source="To-FPGZU-gQmSsZxfXFd-16" target="To-FPGZU-gQmSsZxfXFd-21">
          <mxGeometry relative="1" as="geometry">
            <mxPoint x="457.4999999999998" y="420.47058823529414" as="targetPoint" />
          </mxGeometry>
        </mxCell>
        <mxCell id="To-FPGZU-gQmSsZxfXFd-16" value="&lt;font size=&quot;1&quot;&gt;&lt;b style=&quot;font-size: 31px&quot;&gt;A&lt;/b&gt;&lt;/font&gt;" style="ellipse;whiteSpace=wrap;html=1;aspect=fixed;" vertex="1" parent="1">
          <mxGeometry x="177.5" y="380" width="80" height="80" as="geometry" />
        </mxCell>
        <mxCell id="To-FPGZU-gQmSsZxfXFd-17" value="" style="triangle;whiteSpace=wrap;html=1;" vertex="1" parent="1">
          <mxGeometry x="117.5" y="380" width="60" height="80" as="geometry" />
        </mxCell>
        <mxCell id="To-FPGZU-gQmSsZxfXFd-18" value="&lt;b&gt;&lt;font style=&quot;font-size: 23px&quot;&gt;GO2&lt;/font&gt;&lt;/b&gt;" style="text;html=1;strokeColor=none;fillColor=none;align=center;verticalAlign=middle;whiteSpace=wrap;rounded=0;" vertex="1" parent="1">
          <mxGeometry x="297.5" y="320" width="50" height="50" as="geometry" />
        </mxCell>
        <mxCell id="To-FPGZU-gQmSsZxfXFd-19" style="edgeStyle=orthogonalEdgeStyle;rounded=0;orthogonalLoop=1;jettySize=auto;html=1;exitX=0.5;exitY=1;exitDx=0;exitDy=0;entryX=0.5;entryY=1;entryDx=0;entryDy=0;curved=1;" edge="1" parent="1" source="To-FPGZU-gQmSsZxfXFd-21" target="To-FPGZU-gQmSsZxfXFd-16">
          <mxGeometry relative="1" as="geometry" />
        </mxCell>
        <mxCell id="To-FPGZU-gQmSsZxfXFd-20" style="edgeStyle=orthogonalEdgeStyle;curved=1;rounded=0;orthogonalLoop=1;jettySize=auto;html=1;exitX=0.5;exitY=0;exitDx=0;exitDy=0;entryX=0.5;entryY=0;entryDx=0;entryDy=0;" edge="1" parent="1" source="To-FPGZU-gQmSsZxfXFd-21" target="To-FPGZU-gQmSsZxfXFd-25">
          <mxGeometry relative="1" as="geometry" />
        </mxCell>
        <mxCell id="To-FPGZU-gQmSsZxfXFd-21" value="&lt;b style=&quot;font-size: 31px&quot;&gt;Y&lt;/b&gt;" style="ellipse;whiteSpace=wrap;html=1;aspect=fixed;" vertex="1" parent="1">
          <mxGeometry x="387.5" y="380" width="80" height="80" as="geometry" />
        </mxCell>
        <mxCell id="To-FPGZU-gQmSsZxfXFd-22" value="&lt;b&gt;&lt;font style=&quot;font-size: 23px&quot;&gt;END2&lt;/font&gt;&lt;/b&gt;" style="text;html=1;strokeColor=none;fillColor=none;align=center;verticalAlign=middle;whiteSpace=wrap;rounded=0;" vertex="1" parent="1">
          <mxGeometry x="297.5" y="470" width="50" height="50" as="geometry" />
        </mxCell>
        <mxCell id="To-FPGZU-gQmSsZxfXFd-23" value="&lt;b style=&quot;font-size: 31px&quot;&gt;X&lt;/b&gt;" style="ellipse;whiteSpace=wrap;html=1;aspect=fixed;" vertex="1" parent="1">
          <mxGeometry x="192.5" y="395" width="50" height="50" as="geometry" />
        </mxCell>
        <mxCell id="To-FPGZU-gQmSsZxfXFd-24" style="edgeStyle=orthogonalEdgeStyle;rounded=0;orthogonalLoop=1;jettySize=auto;html=1;exitX=0.5;exitY=1;exitDx=0;exitDy=0;curved=1;" edge="1" parent="1" source="To-FPGZU-gQmSsZxfXFd-25">
          <mxGeometry relative="1" as="geometry">
            <mxPoint x="217.5" y="460" as="targetPoint" />
            <Array as="points">
              <mxPoint x="587.5" y="540" />
              <mxPoint x="217.5" y="540" />
            </Array>
          </mxGeometry>
        </mxCell>
        <mxCell id="To-FPGZU-gQmSsZxfXFd-25" value="&lt;b style=&quot;font-size: 31px&quot;&gt;Z&lt;/b&gt;" style="ellipse;whiteSpace=wrap;html=1;aspect=fixed;" vertex="1" parent="1">
          <mxGeometry x="547.5" y="380" width="80" height="80" as="geometry" />
        </mxCell>
        <mxCell id="To-FPGZU-gQmSsZxfXFd-26" value="&lt;b&gt;&lt;font style=&quot;font-size: 23px&quot;&gt;PROBLEM2&lt;/font&gt;&lt;/b&gt;" style="text;html=1;strokeColor=none;fillColor=none;align=center;verticalAlign=middle;whiteSpace=wrap;rounded=0;" vertex="1" parent="1">
          <mxGeometry x="487.5" y="320" width="50" height="50" as="geometry" />
        </mxCell>
        <mxCell id="To-FPGZU-gQmSsZxfXFd-27" value="&lt;b&gt;&lt;font style=&quot;font-size: 23px&quot;&gt;FREE2&lt;/font&gt;&lt;/b&gt;" style="text;html=1;strokeColor=none;fillColor=none;align=center;verticalAlign=middle;whiteSpace=wrap;rounded=0;" vertex="1" parent="1">
          <mxGeometry x="367.5" y="530" width="50" height="50" as="geometry" />
        </mxCell>
        <mxCell id="To-FPGZU-gQmSsZxfXFd-51" value="" style="triangle;whiteSpace=wrap;html=1;" vertex="1" parent="1">
          <mxGeometry x="130" y="620" width="60" height="80" as="geometry" />
        </mxCell>
        <mxCell id="To-FPGZU-gQmSsZxfXFd-55" style="edgeStyle=orthogonalEdgeStyle;curved=1;rounded=0;orthogonalLoop=1;jettySize=auto;html=1;exitX=0;exitY=1;exitDx=0;exitDy=0;entryX=0;entryY=0;entryDx=0;entryDy=0;" edge="1" parent="1" source="To-FPGZU-gQmSsZxfXFd-52" target="To-FPGZU-gQmSsZxfXFd-54">
          <mxGeometry relative="1" as="geometry">
            <Array as="points">
              <mxPoint x="170" y="689" />
              <mxPoint x="170" y="922" />
            </Array>
          </mxGeometry>
        </mxCell>
        <mxCell id="To-FPGZU-gQmSsZxfXFd-61" style="edgeStyle=orthogonalEdgeStyle;curved=1;rounded=0;orthogonalLoop=1;jettySize=auto;html=1;exitX=1;exitY=0;exitDx=0;exitDy=0;entryX=0;entryY=0;entryDx=0;entryDy=0;" edge="1" parent="1" source="To-FPGZU-gQmSsZxfXFd-52" target="To-FPGZU-gQmSsZxfXFd-60">
          <mxGeometry relative="1" as="geometry">
            <Array as="points">
              <mxPoint x="258" y="610" />
              <mxPoint x="426" y="610" />
            </Array>
          </mxGeometry>
        </mxCell>
        <mxCell id="To-FPGZU-gQmSsZxfXFd-52" value="&lt;font size=&quot;1&quot;&gt;&lt;b style=&quot;font-size: 31px&quot;&gt;A&lt;/b&gt;&lt;/font&gt;" style="ellipse;whiteSpace=wrap;html=1;aspect=fixed;" vertex="1" parent="1">
          <mxGeometry x="190" y="620" width="80" height="80" as="geometry" />
        </mxCell>
        <mxCell id="To-FPGZU-gQmSsZxfXFd-53" value="&lt;b style=&quot;font-size: 31px&quot;&gt;AX&lt;/b&gt;" style="ellipse;whiteSpace=wrap;html=1;aspect=fixed;" vertex="1" parent="1">
          <mxGeometry x="205" y="635" width="50" height="50" as="geometry" />
        </mxCell>
        <mxCell id="To-FPGZU-gQmSsZxfXFd-56" style="edgeStyle=orthogonalEdgeStyle;curved=1;rounded=0;orthogonalLoop=1;jettySize=auto;html=1;exitX=1;exitY=0;exitDx=0;exitDy=0;entryX=1;entryY=1;entryDx=0;entryDy=0;" edge="1" parent="1" source="To-FPGZU-gQmSsZxfXFd-54" target="To-FPGZU-gQmSsZxfXFd-52">
          <mxGeometry relative="1" as="geometry">
            <Array as="points">
              <mxPoint x="280" y="922" />
              <mxPoint x="280" y="688" />
            </Array>
          </mxGeometry>
        </mxCell>
        <mxCell id="To-FPGZU-gQmSsZxfXFd-58" style="edgeStyle=orthogonalEdgeStyle;curved=1;rounded=0;orthogonalLoop=1;jettySize=auto;html=1;exitX=0;exitY=1;exitDx=0;exitDy=0;entryX=0;entryY=0;entryDx=0;entryDy=0;" edge="1" parent="1" source="To-FPGZU-gQmSsZxfXFd-54" target="To-FPGZU-gQmSsZxfXFd-57">
          <mxGeometry relative="1" as="geometry">
            <Array as="points">
              <mxPoint x="170" y="978" />
              <mxPoint x="170" y="1172" />
            </Array>
          </mxGeometry>
        </mxCell>
        <mxCell id="To-FPGZU-gQmSsZxfXFd-107" style="edgeStyle=orthogonalEdgeStyle;curved=1;rounded=0;orthogonalLoop=1;jettySize=auto;html=1;exitX=1;exitY=0;exitDx=0;exitDy=0;entryX=0.061;entryY=0.146;entryDx=0;entryDy=0;entryPerimeter=0;" edge="1" parent="1" source="To-FPGZU-gQmSsZxfXFd-54" target="To-FPGZU-gQmSsZxfXFd-106">
          <mxGeometry relative="1" as="geometry">
            <Array as="points">
              <mxPoint x="258" y="910" />
              <mxPoint x="405" y="910" />
            </Array>
          </mxGeometry>
        </mxCell>
        <mxCell id="To-FPGZU-gQmSsZxfXFd-54" value="&lt;b style=&quot;font-size: 31px&quot;&gt;BX&lt;/b&gt;" style="ellipse;whiteSpace=wrap;html=1;aspect=fixed;" vertex="1" parent="1">
          <mxGeometry x="190" y="910" width="80" height="80" as="geometry" />
        </mxCell>
        <mxCell id="To-FPGZU-gQmSsZxfXFd-72" style="edgeStyle=orthogonalEdgeStyle;curved=1;rounded=0;orthogonalLoop=1;jettySize=auto;html=1;exitX=1;exitY=0;exitDx=0;exitDy=0;entryX=1;entryY=1;entryDx=0;entryDy=0;" edge="1" parent="1" source="To-FPGZU-gQmSsZxfXFd-57" target="To-FPGZU-gQmSsZxfXFd-52">
          <mxGeometry relative="1" as="geometry">
            <Array as="points">
              <mxPoint x="290" y="1172" />
              <mxPoint x="290" y="688" />
            </Array>
          </mxGeometry>
        </mxCell>
        <mxCell id="To-FPGZU-gQmSsZxfXFd-96" style="edgeStyle=orthogonalEdgeStyle;curved=1;rounded=0;orthogonalLoop=1;jettySize=auto;html=1;exitX=1;exitY=0;exitDx=0;exitDy=0;entryX=0;entryY=0;entryDx=0;entryDy=0;" edge="1" parent="1" source="To-FPGZU-gQmSsZxfXFd-57" target="To-FPGZU-gQmSsZxfXFd-74">
          <mxGeometry relative="1" as="geometry">
            <Array as="points">
              <mxPoint x="258" y="1160" />
              <mxPoint x="412" y="1160" />
            </Array>
          </mxGeometry>
        </mxCell>
        <mxCell id="To-FPGZU-gQmSsZxfXFd-57" value="&lt;b style=&quot;font-size: 31px&quot;&gt;CX&lt;/b&gt;" style="ellipse;whiteSpace=wrap;html=1;aspect=fixed;" vertex="1" parent="1">
          <mxGeometry x="190" y="1160" width="80" height="80" as="geometry" />
        </mxCell>
        <mxCell id="To-FPGZU-gQmSsZxfXFd-62" style="edgeStyle=orthogonalEdgeStyle;curved=1;rounded=0;orthogonalLoop=1;jettySize=auto;html=1;exitX=0;exitY=1;exitDx=0;exitDy=0;entryX=1;entryY=1;entryDx=0;entryDy=0;" edge="1" parent="1" source="To-FPGZU-gQmSsZxfXFd-60" target="To-FPGZU-gQmSsZxfXFd-52">
          <mxGeometry relative="1" as="geometry">
            <Array as="points">
              <mxPoint x="426" y="700" />
              <mxPoint x="258" y="700" />
            </Array>
          </mxGeometry>
        </mxCell>
        <mxCell id="To-FPGZU-gQmSsZxfXFd-64" style="edgeStyle=orthogonalEdgeStyle;curved=1;rounded=0;orthogonalLoop=1;jettySize=auto;html=1;exitX=1;exitY=0;exitDx=0;exitDy=0;entryX=0;entryY=0;entryDx=0;entryDy=0;" edge="1" parent="1" source="To-FPGZU-gQmSsZxfXFd-60" target="To-FPGZU-gQmSsZxfXFd-63">
          <mxGeometry relative="1" as="geometry">
            <Array as="points">
              <mxPoint x="482" y="610" />
              <mxPoint x="622" y="610" />
            </Array>
          </mxGeometry>
        </mxCell>
        <mxCell id="To-FPGZU-gQmSsZxfXFd-115" style="edgeStyle=orthogonalEdgeStyle;curved=1;rounded=0;orthogonalLoop=1;jettySize=auto;html=1;exitX=0;exitY=1;exitDx=0;exitDy=0;entryX=0;entryY=0;entryDx=0;entryDy=0;" edge="1" parent="1" source="To-FPGZU-gQmSsZxfXFd-60" target="To-FPGZU-gQmSsZxfXFd-106">
          <mxGeometry relative="1" as="geometry">
            <Array as="points">
              <mxPoint x="400" y="688" />
              <mxPoint x="400" y="922" />
            </Array>
          </mxGeometry>
        </mxCell>
        <mxCell id="To-FPGZU-gQmSsZxfXFd-60" value="&lt;span style=&quot;font-size: 31px&quot;&gt;&lt;b&gt;AY&lt;/b&gt;&lt;/span&gt;" style="ellipse;whiteSpace=wrap;html=1;aspect=fixed;" vertex="1" parent="1">
          <mxGeometry x="414" y="620" width="80" height="80" as="geometry" />
        </mxCell>
        <mxCell id="To-FPGZU-gQmSsZxfXFd-83" style="edgeStyle=orthogonalEdgeStyle;curved=1;rounded=0;orthogonalLoop=1;jettySize=auto;html=1;exitX=0.5;exitY=1;exitDx=0;exitDy=0;entryX=1;entryY=1;entryDx=0;entryDy=0;" edge="1" parent="1" source="To-FPGZU-gQmSsZxfXFd-63" target="To-FPGZU-gQmSsZxfXFd-52">
          <mxGeometry relative="1" as="geometry">
            <Array as="points">
              <mxPoint x="650" y="720" />
              <mxPoint x="258" y="720" />
            </Array>
          </mxGeometry>
        </mxCell>
        <mxCell id="To-FPGZU-gQmSsZxfXFd-90" style="edgeStyle=orthogonalEdgeStyle;curved=1;rounded=0;orthogonalLoop=1;jettySize=auto;html=1;exitX=1;exitY=1;exitDx=0;exitDy=0;entryX=1;entryY=0;entryDx=0;entryDy=0;" edge="1" parent="1" source="To-FPGZU-gQmSsZxfXFd-63" target="To-FPGZU-gQmSsZxfXFd-88">
          <mxGeometry relative="1" as="geometry">
            <Array as="points">
              <mxPoint x="700" y="689" />
              <mxPoint x="700" y="922" />
            </Array>
          </mxGeometry>
        </mxCell>
        <mxCell id="To-FPGZU-gQmSsZxfXFd-63" value="&lt;b style=&quot;font-size: 31px&quot;&gt;AZ&lt;/b&gt;" style="ellipse;whiteSpace=wrap;html=1;aspect=fixed;" vertex="1" parent="1">
          <mxGeometry x="610" y="620" width="80" height="80" as="geometry" />
        </mxCell>
        <mxCell id="To-FPGZU-gQmSsZxfXFd-66" value="&lt;b&gt;&lt;font style=&quot;font-size: 23px&quot;&gt;GO2&lt;/font&gt;&lt;/b&gt;" style="text;html=1;strokeColor=none;fillColor=none;align=center;verticalAlign=middle;whiteSpace=wrap;rounded=0;" vertex="1" parent="1">
          <mxGeometry x="320" y="570" width="50" height="50" as="geometry" />
        </mxCell>
        <mxCell id="To-FPGZU-gQmSsZxfXFd-67" value="&lt;b&gt;&lt;font style=&quot;font-size: 23px&quot;&gt;END2&lt;/font&gt;&lt;/b&gt;" style="text;html=1;strokeColor=none;fillColor=none;align=center;verticalAlign=middle;whiteSpace=wrap;rounded=0;" vertex="1" parent="1">
          <mxGeometry x="320" y="660" width="50" height="50" as="geometry" />
        </mxCell>
        <mxCell id="To-FPGZU-gQmSsZxfXFd-68" value="&lt;b&gt;&lt;font style=&quot;font-size: 23px&quot;&gt;PROBLEM2&lt;/font&gt;&lt;/b&gt;" style="text;html=1;strokeColor=none;fillColor=none;align=center;verticalAlign=middle;whiteSpace=wrap;rounded=0;" vertex="1" parent="1">
          <mxGeometry x="530" y="570" width="50" height="50" as="geometry" />
        </mxCell>
        <mxCell id="To-FPGZU-gQmSsZxfXFd-69" value="&lt;b&gt;&lt;font style=&quot;font-size: 23px&quot;&gt;GO1&lt;/font&gt;&lt;/b&gt;" style="text;html=1;strokeColor=none;fillColor=none;align=center;verticalAlign=middle;whiteSpace=wrap;rounded=0;" vertex="1" parent="1">
          <mxGeometry x="120" y="770" width="50" height="50" as="geometry" />
        </mxCell>
        <mxCell id="To-FPGZU-gQmSsZxfXFd-70" value="&lt;b&gt;&lt;font style=&quot;font-size: 23px&quot;&gt;END1&lt;/font&gt;&lt;/b&gt;" style="text;html=1;strokeColor=none;fillColor=none;align=center;verticalAlign=middle;whiteSpace=wrap;rounded=0;" vertex="1" parent="1">
          <mxGeometry x="220" y="770" width="50" height="50" as="geometry" />
        </mxCell>
        <mxCell id="To-FPGZU-gQmSsZxfXFd-71" value="&lt;b&gt;&lt;font style=&quot;font-size: 23px&quot;&gt;PROBLEM1&lt;/font&gt;&lt;/b&gt;" style="text;html=1;strokeColor=none;fillColor=none;align=center;verticalAlign=middle;whiteSpace=wrap;rounded=0;" vertex="1" parent="1">
          <mxGeometry x="80" y="1050" width="50" height="50" as="geometry" />
        </mxCell>
        <mxCell id="To-FPGZU-gQmSsZxfXFd-73" value="&lt;b&gt;&lt;font style=&quot;font-size: 23px&quot;&gt;FREE1&lt;/font&gt;&lt;/b&gt;" style="text;html=1;strokeColor=none;fillColor=none;align=center;verticalAlign=middle;whiteSpace=wrap;rounded=0;" vertex="1" parent="1">
          <mxGeometry x="220" y="1050" width="50" height="50" as="geometry" />
        </mxCell>
        <mxCell id="To-FPGZU-gQmSsZxfXFd-97" style="edgeStyle=orthogonalEdgeStyle;curved=1;rounded=0;orthogonalLoop=1;jettySize=auto;html=1;exitX=0;exitY=1;exitDx=0;exitDy=0;entryX=1;entryY=1;entryDx=0;entryDy=0;" edge="1" parent="1" source="To-FPGZU-gQmSsZxfXFd-74" target="To-FPGZU-gQmSsZxfXFd-57">
          <mxGeometry relative="1" as="geometry">
            <Array as="points">
              <mxPoint x="412" y="1240" />
              <mxPoint x="258" y="1240" />
            </Array>
          </mxGeometry>
        </mxCell>
        <mxCell id="To-FPGZU-gQmSsZxfXFd-98" style="edgeStyle=orthogonalEdgeStyle;curved=1;rounded=0;orthogonalLoop=1;jettySize=auto;html=1;exitX=1;exitY=0;exitDx=0;exitDy=0;entryX=0;entryY=0;entryDx=0;entryDy=0;" edge="1" parent="1" source="To-FPGZU-gQmSsZxfXFd-74" target="To-FPGZU-gQmSsZxfXFd-75">
          <mxGeometry relative="1" as="geometry">
            <Array as="points">
              <mxPoint x="468" y="1160" />
              <mxPoint x="622" y="1160" />
            </Array>
          </mxGeometry>
        </mxCell>
        <mxCell id="To-FPGZU-gQmSsZxfXFd-118" style="edgeStyle=orthogonalEdgeStyle;curved=1;rounded=0;orthogonalLoop=1;jettySize=auto;html=1;exitX=1;exitY=0;exitDx=0;exitDy=0;entryX=0.93;entryY=0.771;entryDx=0;entryDy=0;entryPerimeter=0;" edge="1" parent="1" source="To-FPGZU-gQmSsZxfXFd-74" target="To-FPGZU-gQmSsZxfXFd-60">
          <mxGeometry relative="1" as="geometry">
            <Array as="points">
              <mxPoint x="520" y="1172" />
              <mxPoint x="520" y="682" />
            </Array>
          </mxGeometry>
        </mxCell>
        <mxCell id="To-FPGZU-gQmSsZxfXFd-74" value="&lt;b style=&quot;font-size: 31px&quot;&gt;CY&lt;/b&gt;" style="ellipse;whiteSpace=wrap;html=1;aspect=fixed;" vertex="1" parent="1">
          <mxGeometry x="400" y="1160" width="80" height="80" as="geometry" />
        </mxCell>
        <mxCell id="To-FPGZU-gQmSsZxfXFd-99" style="edgeStyle=orthogonalEdgeStyle;curved=1;rounded=0;orthogonalLoop=1;jettySize=auto;html=1;exitX=0;exitY=1;exitDx=0;exitDy=0;entryX=1;entryY=1;entryDx=0;entryDy=0;" edge="1" parent="1" source="To-FPGZU-gQmSsZxfXFd-75" target="To-FPGZU-gQmSsZxfXFd-57">
          <mxGeometry relative="1" as="geometry">
            <Array as="points">
              <mxPoint x="622" y="1250" />
              <mxPoint x="258" y="1250" />
            </Array>
          </mxGeometry>
        </mxCell>
        <mxCell id="To-FPGZU-gQmSsZxfXFd-103" style="edgeStyle=orthogonalEdgeStyle;curved=1;rounded=0;orthogonalLoop=1;jettySize=auto;html=1;exitX=0;exitY=0;exitDx=0;exitDy=0;entryX=0;entryY=1;entryDx=0;entryDy=0;" edge="1" parent="1" source="To-FPGZU-gQmSsZxfXFd-75" target="To-FPGZU-gQmSsZxfXFd-63">
          <mxGeometry relative="1" as="geometry">
            <Array as="points">
              <mxPoint x="570" y="1172" />
              <mxPoint x="570" y="688" />
            </Array>
          </mxGeometry>
        </mxCell>
        <mxCell id="To-FPGZU-gQmSsZxfXFd-75" value="&lt;b style=&quot;font-size: 31px&quot;&gt;CZ&lt;/b&gt;" style="ellipse;whiteSpace=wrap;html=1;aspect=fixed;" vertex="1" parent="1">
          <mxGeometry x="610" y="1160" width="80" height="80" as="geometry" />
        </mxCell>
        <mxCell id="To-FPGZU-gQmSsZxfXFd-80" value="&lt;b&gt;&lt;font style=&quot;font-size: 23px&quot;&gt;GO2&lt;/font&gt;&lt;/b&gt;" style="text;html=1;strokeColor=none;fillColor=none;align=center;verticalAlign=middle;whiteSpace=wrap;rounded=0;" vertex="1" parent="1">
          <mxGeometry x="300" y="1120" width="50" height="50" as="geometry" />
        </mxCell>
        <mxCell id="To-FPGZU-gQmSsZxfXFd-81" value="&lt;b&gt;&lt;font style=&quot;font-size: 23px&quot;&gt;END2&lt;/font&gt;&lt;/b&gt;" style="text;html=1;strokeColor=none;fillColor=none;align=center;verticalAlign=middle;whiteSpace=wrap;rounded=0;" vertex="1" parent="1">
          <mxGeometry x="300" y="1200" width="50" height="50" as="geometry" />
        </mxCell>
        <mxCell id="To-FPGZU-gQmSsZxfXFd-82" value="&lt;b&gt;&lt;font style=&quot;font-size: 23px&quot;&gt;PROBLEM2&lt;/font&gt;&lt;/b&gt;" style="text;html=1;strokeColor=none;fillColor=none;align=center;verticalAlign=middle;whiteSpace=wrap;rounded=0;" vertex="1" parent="1">
          <mxGeometry x="494" y="1120" width="50" height="50" as="geometry" />
        </mxCell>
        <mxCell id="To-FPGZU-gQmSsZxfXFd-84" value="&lt;b&gt;&lt;font style=&quot;font-size: 23px&quot;&gt;FREE2&lt;/font&gt;&lt;/b&gt;" style="text;html=1;strokeColor=none;fillColor=none;align=center;verticalAlign=middle;whiteSpace=wrap;rounded=0;" vertex="1" parent="1">
          <mxGeometry x="530" y="680" width="50" height="50" as="geometry" />
        </mxCell>
        <mxCell id="To-FPGZU-gQmSsZxfXFd-87" value="&lt;b&gt;&lt;font style=&quot;font-size: 23px&quot;&gt;FREE2&lt;/font&gt;&lt;/b&gt;" style="text;html=1;strokeColor=none;fillColor=none;align=center;verticalAlign=middle;whiteSpace=wrap;rounded=0;" vertex="1" parent="1">
          <mxGeometry x="500" y="1210" width="50" height="50" as="geometry" />
        </mxCell>
        <mxCell id="To-FPGZU-gQmSsZxfXFd-91" style="edgeStyle=orthogonalEdgeStyle;curved=1;rounded=0;orthogonalLoop=1;jettySize=auto;html=1;exitX=0;exitY=0;exitDx=0;exitDy=0;entryX=0;entryY=1;entryDx=0;entryDy=0;" edge="1" parent="1" source="To-FPGZU-gQmSsZxfXFd-88" target="To-FPGZU-gQmSsZxfXFd-63">
          <mxGeometry relative="1" as="geometry">
            <Array as="points">
              <mxPoint x="600" y="922" />
              <mxPoint x="600" y="688" />
            </Array>
          </mxGeometry>
        </mxCell>
        <mxCell id="To-FPGZU-gQmSsZxfXFd-100" style="edgeStyle=orthogonalEdgeStyle;curved=1;rounded=0;orthogonalLoop=1;jettySize=auto;html=1;exitX=1;exitY=1;exitDx=0;exitDy=0;entryX=1;entryY=0;entryDx=0;entryDy=0;" edge="1" parent="1" source="To-FPGZU-gQmSsZxfXFd-88" target="To-FPGZU-gQmSsZxfXFd-75">
          <mxGeometry relative="1" as="geometry">
            <Array as="points">
              <mxPoint x="690" y="978" />
              <mxPoint x="690" y="1172" />
            </Array>
          </mxGeometry>
        </mxCell>
        <mxCell id="To-FPGZU-gQmSsZxfXFd-112" style="edgeStyle=orthogonalEdgeStyle;curved=1;rounded=0;orthogonalLoop=1;jettySize=auto;html=1;exitX=0;exitY=1;exitDx=0;exitDy=0;entryX=0;entryY=1;entryDx=0;entryDy=0;" edge="1" parent="1" source="To-FPGZU-gQmSsZxfXFd-88" target="To-FPGZU-gQmSsZxfXFd-54">
          <mxGeometry relative="1" as="geometry">
            <Array as="points">
              <mxPoint x="622" y="1010" />
              <mxPoint x="202" y="1010" />
            </Array>
          </mxGeometry>
        </mxCell>
        <mxCell id="To-FPGZU-gQmSsZxfXFd-88" value="&lt;b style=&quot;font-size: 31px&quot;&gt;BZ&lt;/b&gt;" style="ellipse;whiteSpace=wrap;html=1;aspect=fixed;" vertex="1" parent="1">
          <mxGeometry x="610" y="910" width="80" height="80" as="geometry" />
        </mxCell>
        <mxCell id="To-FPGZU-gQmSsZxfXFd-101" value="&lt;b&gt;&lt;font style=&quot;font-size: 23px&quot;&gt;GO1&lt;/font&gt;&lt;/b&gt;" style="text;html=1;strokeColor=none;fillColor=none;align=center;verticalAlign=middle;whiteSpace=wrap;rounded=0;" vertex="1" parent="1">
          <mxGeometry x="700" y="770" width="50" height="50" as="geometry" />
        </mxCell>
        <mxCell id="To-FPGZU-gQmSsZxfXFd-102" value="&lt;b&gt;&lt;font style=&quot;font-size: 23px&quot;&gt;END1&lt;/font&gt;&lt;/b&gt;" style="text;html=1;strokeColor=none;fillColor=none;align=center;verticalAlign=middle;whiteSpace=wrap;rounded=0;" vertex="1" parent="1">
          <mxGeometry x="620" y="770" width="50" height="50" as="geometry" />
        </mxCell>
        <mxCell id="To-FPGZU-gQmSsZxfXFd-104" value="&lt;b&gt;&lt;font style=&quot;font-size: 23px&quot;&gt;PROBLEM1&lt;/font&gt;&lt;/b&gt;" style="text;html=1;strokeColor=none;fillColor=none;align=center;verticalAlign=middle;whiteSpace=wrap;rounded=0;" vertex="1" parent="1">
          <mxGeometry x="730" y="1040" width="50" height="50" as="geometry" />
        </mxCell>
        <mxCell id="To-FPGZU-gQmSsZxfXFd-105" value="&lt;b&gt;&lt;font style=&quot;font-size: 23px&quot;&gt;FREE1&lt;/font&gt;&lt;/b&gt;" style="text;html=1;strokeColor=none;fillColor=none;align=center;verticalAlign=middle;whiteSpace=wrap;rounded=0;" vertex="1" parent="1">
          <mxGeometry x="590" y="1010" width="50" height="50" as="geometry" />
        </mxCell>
        <mxCell id="To-FPGZU-gQmSsZxfXFd-108" style="edgeStyle=orthogonalEdgeStyle;curved=1;rounded=0;orthogonalLoop=1;jettySize=auto;html=1;exitX=0;exitY=1;exitDx=0;exitDy=0;entryX=1;entryY=1;entryDx=0;entryDy=0;" edge="1" parent="1" source="To-FPGZU-gQmSsZxfXFd-106" target="To-FPGZU-gQmSsZxfXFd-54">
          <mxGeometry relative="1" as="geometry">
            <Array as="points">
              <mxPoint x="412" y="990" />
              <mxPoint x="258" y="990" />
            </Array>
          </mxGeometry>
        </mxCell>
        <mxCell id="To-FPGZU-gQmSsZxfXFd-111" style="edgeStyle=orthogonalEdgeStyle;curved=1;rounded=0;orthogonalLoop=1;jettySize=auto;html=1;exitX=1;exitY=0;exitDx=0;exitDy=0;" edge="1" parent="1" source="To-FPGZU-gQmSsZxfXFd-106">
          <mxGeometry relative="1" as="geometry">
            <mxPoint x="620" y="921.6470588235295" as="targetPoint" />
            <Array as="points">
              <mxPoint x="468" y="910" />
              <mxPoint x="620" y="910" />
            </Array>
          </mxGeometry>
        </mxCell>
        <mxCell id="To-FPGZU-gQmSsZxfXFd-116" style="edgeStyle=orthogonalEdgeStyle;curved=1;rounded=0;orthogonalLoop=1;jettySize=auto;html=1;exitX=1;exitY=0;exitDx=0;exitDy=0;entryX=1;entryY=1;entryDx=0;entryDy=0;" edge="1" parent="1" source="To-FPGZU-gQmSsZxfXFd-106" target="To-FPGZU-gQmSsZxfXFd-60">
          <mxGeometry relative="1" as="geometry">
            <Array as="points">
              <mxPoint x="490" y="922" />
              <mxPoint x="490" y="688" />
            </Array>
          </mxGeometry>
        </mxCell>
        <mxCell id="To-FPGZU-gQmSsZxfXFd-117" style="edgeStyle=orthogonalEdgeStyle;curved=1;rounded=0;orthogonalLoop=1;jettySize=auto;html=1;exitX=0;exitY=1;exitDx=0;exitDy=0;entryX=0.193;entryY=0.065;entryDx=0;entryDy=0;entryPerimeter=0;" edge="1" parent="1" source="To-FPGZU-gQmSsZxfXFd-106" target="To-FPGZU-gQmSsZxfXFd-74">
          <mxGeometry relative="1" as="geometry">
            <Array as="points">
              <mxPoint x="400" y="978" />
              <mxPoint x="400" y="1165" />
            </Array>
          </mxGeometry>
        </mxCell>
        <mxCell id="To-FPGZU-gQmSsZxfXFd-106" value="&lt;b style=&quot;font-size: 31px&quot;&gt;BY&lt;/b&gt;" style="ellipse;whiteSpace=wrap;html=1;aspect=fixed;" vertex="1" parent="1">
          <mxGeometry x="400" y="910" width="80" height="80" as="geometry" />
        </mxCell>
        <mxCell id="To-FPGZU-gQmSsZxfXFd-109" value="&lt;b&gt;&lt;font style=&quot;font-size: 23px&quot;&gt;GO2&lt;/font&gt;&lt;/b&gt;" style="text;html=1;strokeColor=none;fillColor=none;align=center;verticalAlign=middle;whiteSpace=wrap;rounded=0;" vertex="1" parent="1">
          <mxGeometry x="310" y="870" width="50" height="50" as="geometry" />
        </mxCell>
        <mxCell id="To-FPGZU-gQmSsZxfXFd-110" value="&lt;b&gt;&lt;font style=&quot;font-size: 23px&quot;&gt;END2&lt;/font&gt;&lt;/b&gt;" style="text;html=1;strokeColor=none;fillColor=none;align=center;verticalAlign=middle;whiteSpace=wrap;rounded=0;" vertex="1" parent="1">
          <mxGeometry x="310" y="950" width="50" height="50" as="geometry" />
        </mxCell>
        <mxCell id="To-FPGZU-gQmSsZxfXFd-113" value="&lt;b&gt;&lt;font style=&quot;font-size: 18px&quot;&gt;PROBLEM2&lt;/font&gt;&lt;/b&gt;" style="text;html=1;strokeColor=none;fillColor=none;align=center;verticalAlign=middle;whiteSpace=wrap;rounded=0;" vertex="1" parent="1">
          <mxGeometry x="520" y="870" width="40" height="50" as="geometry" />
        </mxCell>
        <mxCell id="To-FPGZU-gQmSsZxfXFd-114" value="&lt;b&gt;&lt;font style=&quot;font-size: 23px&quot;&gt;FREE2&lt;/font&gt;&lt;/b&gt;" style="text;html=1;strokeColor=none;fillColor=none;align=center;verticalAlign=middle;whiteSpace=wrap;rounded=0;" vertex="1" parent="1">
          <mxGeometry x="500" y="970" width="50" height="50" as="geometry" />
        </mxCell>
        <mxCell id="To-FPGZU-gQmSsZxfXFd-119" value="&lt;b&gt;&lt;font style=&quot;font-size: 23px&quot;&gt;GO1&lt;/font&gt;&lt;/b&gt;" style="text;html=1;strokeColor=none;fillColor=none;align=center;verticalAlign=middle;whiteSpace=wrap;rounded=0;" vertex="1" parent="1">
          <mxGeometry x="350" y="780" width="50" height="50" as="geometry" />
        </mxCell>
        <mxCell id="To-FPGZU-gQmSsZxfXFd-120" value="&lt;b&gt;&lt;font style=&quot;font-size: 23px&quot;&gt;END1&lt;/font&gt;&lt;/b&gt;" style="text;html=1;strokeColor=none;fillColor=none;align=center;verticalAlign=middle;whiteSpace=wrap;rounded=0;" vertex="1" parent="1">
          <mxGeometry x="440" y="780" width="50" height="50" as="geometry" />
        </mxCell>
        <mxCell id="To-FPGZU-gQmSsZxfXFd-121" value="&lt;b&gt;&lt;font style=&quot;font-size: 12px&quot;&gt;PROBLEM1&lt;/font&gt;&lt;/b&gt;" style="text;html=1;strokeColor=none;fillColor=none;align=center;verticalAlign=middle;whiteSpace=wrap;rounded=0;" vertex="1" parent="1">
          <mxGeometry x="355" y="1050" width="40" height="50" as="geometry" />
        </mxCell>
        <mxCell id="To-FPGZU-gQmSsZxfXFd-123" value="&lt;b&gt;&lt;font style=&quot;font-size: 16px&quot;&gt;FREE1&lt;/font&gt;&lt;/b&gt;" style="text;html=1;strokeColor=none;fillColor=none;align=center;verticalAlign=middle;whiteSpace=wrap;rounded=0;" vertex="1" parent="1">
          <mxGeometry x="460" y="1050" width="50" height="50" as="geometry" />
        </mxCell>
        <mxCell id="To-FPGZU-gQmSsZxfXFd-128" style="edgeStyle=orthogonalEdgeStyle;curved=1;rounded=0;orthogonalLoop=1;jettySize=auto;html=1;exitX=1;exitY=0;exitDx=0;exitDy=0;entryX=0;entryY=0;entryDx=0;entryDy=0;" edge="1" parent="1" source="To-FPGZU-gQmSsZxfXFd-124" target="To-FPGZU-gQmSsZxfXFd-127">
          <mxGeometry relative="1" as="geometry">
            <Array as="points">
              <mxPoint x="248" y="1950" />
              <mxPoint x="402" y="1950" />
            </Array>
          </mxGeometry>
        </mxCell>
        <mxCell id="To-FPGZU-gQmSsZxfXFd-151" style="edgeStyle=orthogonalEdgeStyle;curved=1;rounded=0;orthogonalLoop=1;jettySize=auto;html=1;exitX=0;exitY=1;exitDx=0;exitDy=0;entryX=0;entryY=0;entryDx=0;entryDy=0;" edge="1" parent="1" source="To-FPGZU-gQmSsZxfXFd-124" target="To-FPGZU-gQmSsZxfXFd-150">
          <mxGeometry relative="1" as="geometry">
            <Array as="points">
              <mxPoint x="80" y="2019" />
              <mxPoint x="80" y="2161" />
            </Array>
          </mxGeometry>
        </mxCell>
        <mxCell id="To-FPGZU-gQmSsZxfXFd-124" value="&lt;font size=&quot;1&quot;&gt;&lt;b style=&quot;font-size: 31px&quot;&gt;A&lt;/b&gt;&lt;/font&gt;" style="ellipse;whiteSpace=wrap;html=1;aspect=fixed;" vertex="1" parent="1">
          <mxGeometry x="90" y="1950" width="80" height="80" as="geometry" />
        </mxCell>
        <mxCell id="To-FPGZU-gQmSsZxfXFd-125" value="&lt;b style=&quot;font-size: 31px&quot;&gt;AXQ&lt;/b&gt;" style="ellipse;whiteSpace=wrap;html=1;aspect=fixed;" vertex="1" parent="1">
          <mxGeometry x="105" y="1965" width="50" height="50" as="geometry" />
        </mxCell>
        <mxCell id="To-FPGZU-gQmSsZxfXFd-126" value="" style="triangle;whiteSpace=wrap;html=1;" vertex="1" parent="1">
          <mxGeometry x="30" y="1950" width="60" height="80" as="geometry" />
        </mxCell>
        <mxCell id="To-FPGZU-gQmSsZxfXFd-129" style="edgeStyle=orthogonalEdgeStyle;curved=1;rounded=0;orthogonalLoop=1;jettySize=auto;html=1;exitX=0;exitY=1;exitDx=0;exitDy=0;entryX=1;entryY=1;entryDx=0;entryDy=0;" edge="1" parent="1" source="To-FPGZU-gQmSsZxfXFd-127" target="To-FPGZU-gQmSsZxfXFd-124">
          <mxGeometry relative="1" as="geometry">
            <Array as="points">
              <mxPoint x="402" y="2030" />
              <mxPoint x="248" y="2030" />
            </Array>
          </mxGeometry>
        </mxCell>
        <mxCell id="To-FPGZU-gQmSsZxfXFd-133" style="edgeStyle=orthogonalEdgeStyle;curved=1;rounded=0;orthogonalLoop=1;jettySize=auto;html=1;exitX=1;exitY=0;exitDx=0;exitDy=0;entryX=0;entryY=0;entryDx=0;entryDy=0;" edge="1" parent="1" source="To-FPGZU-gQmSsZxfXFd-127" target="To-FPGZU-gQmSsZxfXFd-132">
          <mxGeometry relative="1" as="geometry">
            <Array as="points">
              <mxPoint x="458" y="1950" />
              <mxPoint x="612" y="1950" />
            </Array>
          </mxGeometry>
        </mxCell>
        <mxCell id="To-FPGZU-gQmSsZxfXFd-187" style="edgeStyle=orthogonalEdgeStyle;curved=1;rounded=0;orthogonalLoop=1;jettySize=auto;html=1;exitX=0;exitY=1;exitDx=0;exitDy=0;entryX=0.5;entryY=0;entryDx=0;entryDy=0;" edge="1" parent="1" source="To-FPGZU-gQmSsZxfXFd-127" target="To-FPGZU-gQmSsZxfXFd-173">
          <mxGeometry relative="1" as="geometry">
            <Array as="points">
              <mxPoint x="370" y="2018" />
            </Array>
          </mxGeometry>
        </mxCell>
        <mxCell id="To-FPGZU-gQmSsZxfXFd-127" value="&lt;b style=&quot;font-size: 31px&quot;&gt;AYR&lt;/b&gt;" style="ellipse;whiteSpace=wrap;html=1;aspect=fixed;" vertex="1" parent="1">
          <mxGeometry x="390" y="1950" width="80" height="80" as="geometry" />
        </mxCell>
        <mxCell id="To-FPGZU-gQmSsZxfXFd-130" value="&lt;b&gt;&lt;font style=&quot;font-size: 23px&quot;&gt;GO1&lt;/font&gt;&lt;/b&gt;" style="text;html=1;strokeColor=none;fillColor=none;align=center;verticalAlign=middle;whiteSpace=wrap;rounded=0;" vertex="1" parent="1">
          <mxGeometry x="220" y="1910" width="50" height="50" as="geometry" />
        </mxCell>
        <mxCell id="To-FPGZU-gQmSsZxfXFd-131" value="&lt;b&gt;&lt;font style=&quot;font-size: 23px&quot;&gt;END1&lt;/font&gt;&lt;/b&gt;" style="text;html=1;strokeColor=none;fillColor=none;align=center;verticalAlign=middle;whiteSpace=wrap;rounded=0;" vertex="1" parent="1">
          <mxGeometry x="210" y="2015" width="50" height="50" as="geometry" />
        </mxCell>
        <mxCell id="To-FPGZU-gQmSsZxfXFd-138" style="edgeStyle=orthogonalEdgeStyle;curved=1;rounded=0;orthogonalLoop=1;jettySize=auto;html=1;exitX=1;exitY=1;exitDx=0;exitDy=0;entryX=1;entryY=0;entryDx=0;entryDy=0;" edge="1" parent="1" source="To-FPGZU-gQmSsZxfXFd-132" target="To-FPGZU-gQmSsZxfXFd-137">
          <mxGeometry relative="1" as="geometry">
            <Array as="points">
              <mxPoint x="690" y="2019" />
              <mxPoint x="690" y="2161" />
            </Array>
          </mxGeometry>
        </mxCell>
        <mxCell id="To-FPGZU-gQmSsZxfXFd-147" style="edgeStyle=orthogonalEdgeStyle;curved=1;rounded=0;orthogonalLoop=1;jettySize=auto;html=1;exitX=1;exitY=0;exitDx=0;exitDy=0;entryX=0;entryY=0;entryDx=0;entryDy=0;" edge="1" parent="1" source="To-FPGZU-gQmSsZxfXFd-132" target="To-FPGZU-gQmSsZxfXFd-124">
          <mxGeometry relative="1" as="geometry">
            <Array as="points">
              <mxPoint x="668" y="1870" />
              <mxPoint x="110" y="1870" />
              <mxPoint x="110" y="1962" />
            </Array>
          </mxGeometry>
        </mxCell>
        <mxCell id="To-FPGZU-gQmSsZxfXFd-132" value="&lt;b style=&quot;font-size: 31px&quot;&gt;AZS&lt;/b&gt;" style="ellipse;whiteSpace=wrap;html=1;aspect=fixed;" vertex="1" parent="1">
          <mxGeometry x="600" y="1950" width="80" height="80" as="geometry" />
        </mxCell>
        <mxCell id="To-FPGZU-gQmSsZxfXFd-134" value="&lt;b&gt;&lt;font style=&quot;font-size: 23px&quot;&gt;PROBLEM1&lt;/font&gt;&lt;/b&gt;" style="text;html=1;strokeColor=none;fillColor=none;align=center;verticalAlign=middle;whiteSpace=wrap;rounded=0;" vertex="1" parent="1">
          <mxGeometry x="510" y="1910" width="50" height="50" as="geometry" />
        </mxCell>
        <mxCell id="To-FPGZU-gQmSsZxfXFd-136" value="&lt;b&gt;&lt;font style=&quot;font-size: 23px&quot;&gt;FREE1&lt;/font&gt;&lt;/b&gt;" style="text;html=1;strokeColor=none;fillColor=none;align=center;verticalAlign=middle;whiteSpace=wrap;rounded=0;" vertex="1" parent="1">
          <mxGeometry x="405" y="1820" width="50" height="50" as="geometry" />
        </mxCell>
        <mxCell id="To-FPGZU-gQmSsZxfXFd-140" style="edgeStyle=orthogonalEdgeStyle;curved=1;rounded=0;orthogonalLoop=1;jettySize=auto;html=1;exitX=0;exitY=0;exitDx=0;exitDy=0;entryX=0;entryY=1;entryDx=0;entryDy=0;" edge="1" parent="1" source="To-FPGZU-gQmSsZxfXFd-137" target="To-FPGZU-gQmSsZxfXFd-132">
          <mxGeometry relative="1" as="geometry">
            <Array as="points">
              <mxPoint x="590" y="2162" />
              <mxPoint x="590" y="2018" />
            </Array>
          </mxGeometry>
        </mxCell>
        <mxCell id="To-FPGZU-gQmSsZxfXFd-143" style="edgeStyle=orthogonalEdgeStyle;curved=1;rounded=0;orthogonalLoop=1;jettySize=auto;html=1;exitX=1;exitY=1;exitDx=0;exitDy=0;entryX=1;entryY=0;entryDx=0;entryDy=0;" edge="1" parent="1" source="To-FPGZU-gQmSsZxfXFd-137" target="To-FPGZU-gQmSsZxfXFd-142">
          <mxGeometry relative="1" as="geometry">
            <Array as="points">
              <mxPoint x="690" y="2219" />
              <mxPoint x="690" y="2361" />
            </Array>
          </mxGeometry>
        </mxCell>
        <mxCell id="To-FPGZU-gQmSsZxfXFd-167" style="edgeStyle=orthogonalEdgeStyle;curved=1;rounded=0;orthogonalLoop=1;jettySize=auto;html=1;exitX=0;exitY=0.5;exitDx=0;exitDy=0;entryX=1;entryY=0.5;entryDx=0;entryDy=0;" edge="1" parent="1" source="To-FPGZU-gQmSsZxfXFd-137" target="To-FPGZU-gQmSsZxfXFd-150">
          <mxGeometry relative="1" as="geometry">
            <Array as="points">
              <mxPoint x="600" y="2290" />
              <mxPoint x="170" y="2290" />
            </Array>
          </mxGeometry>
        </mxCell>
        <mxCell id="To-FPGZU-gQmSsZxfXFd-137" value="&lt;b style=&quot;font-size: 31px&quot;&gt;BZT&lt;/b&gt;" style="ellipse;whiteSpace=wrap;html=1;aspect=fixed;" vertex="1" parent="1">
          <mxGeometry x="600" y="2150" width="80" height="80" as="geometry" />
        </mxCell>
        <mxCell id="To-FPGZU-gQmSsZxfXFd-139" value="&lt;b&gt;&lt;font style=&quot;font-size: 23px&quot;&gt;GO2&lt;/font&gt;&lt;/b&gt;" style="text;html=1;strokeColor=none;fillColor=none;align=center;verticalAlign=middle;whiteSpace=wrap;rounded=0;" vertex="1" parent="1">
          <mxGeometry x="700" y="2074" width="50" height="50" as="geometry" />
        </mxCell>
        <mxCell id="To-FPGZU-gQmSsZxfXFd-141" value="&lt;b&gt;&lt;font style=&quot;font-size: 23px&quot;&gt;END2&lt;/font&gt;&lt;/b&gt;" style="text;html=1;strokeColor=none;fillColor=none;align=center;verticalAlign=middle;whiteSpace=wrap;rounded=0;" vertex="1" parent="1">
          <mxGeometry x="534" y="2074" width="50" height="50" as="geometry" />
        </mxCell>
        <mxCell id="To-FPGZU-gQmSsZxfXFd-148" style="edgeStyle=orthogonalEdgeStyle;curved=1;rounded=0;orthogonalLoop=1;jettySize=auto;html=1;exitX=1;exitY=1;exitDx=0;exitDy=0;entryX=1;entryY=0;entryDx=0;entryDy=0;" edge="1" parent="1" source="To-FPGZU-gQmSsZxfXFd-142" target="To-FPGZU-gQmSsZxfXFd-132">
          <mxGeometry relative="1" as="geometry">
            <Array as="points">
              <mxPoint x="870" y="2419" />
              <mxPoint x="870" y="1961" />
            </Array>
          </mxGeometry>
        </mxCell>
        <mxCell id="To-FPGZU-gQmSsZxfXFd-142" value="&lt;b style=&quot;font-size: 31px&quot;&gt;CZU&lt;/b&gt;" style="ellipse;whiteSpace=wrap;html=1;aspect=fixed;" vertex="1" parent="1">
          <mxGeometry x="600" y="2350" width="80" height="80" as="geometry" />
        </mxCell>
        <mxCell id="To-FPGZU-gQmSsZxfXFd-144" value="&lt;b&gt;&lt;font style=&quot;font-size: 23px&quot;&gt;PROBLEM2&lt;/font&gt;&lt;/b&gt;" style="text;html=1;strokeColor=none;fillColor=none;align=center;verticalAlign=middle;whiteSpace=wrap;rounded=0;" vertex="1" parent="1">
          <mxGeometry x="730" y="2250" width="50" height="50" as="geometry" />
        </mxCell>
        <mxCell id="To-FPGZU-gQmSsZxfXFd-149" value="&lt;b&gt;&lt;font style=&quot;font-size: 23px&quot;&gt;FREE2&lt;/font&gt;&lt;/b&gt;" style="text;html=1;strokeColor=none;fillColor=none;align=center;verticalAlign=middle;whiteSpace=wrap;rounded=0;" vertex="1" parent="1">
          <mxGeometry x="880" y="2150" width="50" height="50" as="geometry" />
        </mxCell>
        <mxCell id="To-FPGZU-gQmSsZxfXFd-153" style="edgeStyle=orthogonalEdgeStyle;curved=1;rounded=0;orthogonalLoop=1;jettySize=auto;html=1;exitX=1;exitY=0;exitDx=0;exitDy=0;entryX=1;entryY=1;entryDx=0;entryDy=0;" edge="1" parent="1" source="To-FPGZU-gQmSsZxfXFd-150" target="To-FPGZU-gQmSsZxfXFd-124">
          <mxGeometry relative="1" as="geometry">
            <Array as="points">
              <mxPoint x="180" y="2162" />
              <mxPoint x="180" y="2018" />
            </Array>
          </mxGeometry>
        </mxCell>
        <mxCell id="To-FPGZU-gQmSsZxfXFd-156" style="edgeStyle=orthogonalEdgeStyle;curved=1;rounded=0;orthogonalLoop=1;jettySize=auto;html=1;exitX=0;exitY=1;exitDx=0;exitDy=0;entryX=0;entryY=0;entryDx=0;entryDy=0;" edge="1" parent="1" source="To-FPGZU-gQmSsZxfXFd-150" target="To-FPGZU-gQmSsZxfXFd-155">
          <mxGeometry relative="1" as="geometry">
            <Array as="points">
              <mxPoint x="80" y="2219" />
              <mxPoint x="80" y="2361" />
            </Array>
          </mxGeometry>
        </mxCell>
        <mxCell id="To-FPGZU-gQmSsZxfXFd-174" style="edgeStyle=orthogonalEdgeStyle;curved=1;rounded=0;orthogonalLoop=1;jettySize=auto;html=1;exitX=1;exitY=0.5;exitDx=0;exitDy=0;entryX=0;entryY=1;entryDx=0;entryDy=0;" edge="1" parent="1" source="To-FPGZU-gQmSsZxfXFd-150" target="To-FPGZU-gQmSsZxfXFd-173">
          <mxGeometry relative="1" as="geometry">
            <Array as="points">
              <mxPoint x="170" y="2203" />
            </Array>
          </mxGeometry>
        </mxCell>
        <mxCell id="To-FPGZU-gQmSsZxfXFd-150" value="&lt;span style=&quot;font-size: 31px&quot;&gt;&lt;b&gt;BXV&lt;/b&gt;&lt;/span&gt;" style="ellipse;whiteSpace=wrap;html=1;aspect=fixed;" vertex="1" parent="1">
          <mxGeometry x="90" y="2150" width="80" height="80" as="geometry" />
        </mxCell>
        <mxCell id="To-FPGZU-gQmSsZxfXFd-152" value="&lt;b&gt;&lt;font style=&quot;font-size: 23px&quot;&gt;GO2&lt;/font&gt;&lt;/b&gt;" style="text;html=1;strokeColor=none;fillColor=none;align=center;verticalAlign=middle;whiteSpace=wrap;rounded=0;" vertex="1" parent="1">
          <mxGeometry x="30" y="2065" width="50" height="50" as="geometry" />
        </mxCell>
        <mxCell id="To-FPGZU-gQmSsZxfXFd-154" value="&lt;b&gt;&lt;font style=&quot;font-size: 23px&quot;&gt;END2&lt;/font&gt;&lt;/b&gt;" style="text;html=1;strokeColor=none;fillColor=none;align=center;verticalAlign=middle;whiteSpace=wrap;rounded=0;" vertex="1" parent="1">
          <mxGeometry x="190" y="2065" width="50" height="50" as="geometry" />
        </mxCell>
        <mxCell id="To-FPGZU-gQmSsZxfXFd-158" style="edgeStyle=orthogonalEdgeStyle;curved=1;rounded=0;orthogonalLoop=1;jettySize=auto;html=1;exitX=0;exitY=1;exitDx=0;exitDy=0;entryX=0;entryY=1;entryDx=0;entryDy=0;" edge="1" parent="1" source="To-FPGZU-gQmSsZxfXFd-155" target="To-FPGZU-gQmSsZxfXFd-124">
          <mxGeometry relative="1" as="geometry">
            <Array as="points">
              <mxPoint x="-60" y="2418" />
              <mxPoint x="-60" y="2040" />
              <mxPoint x="102" y="2040" />
            </Array>
          </mxGeometry>
        </mxCell>
        <mxCell id="To-FPGZU-gQmSsZxfXFd-161" style="edgeStyle=orthogonalEdgeStyle;curved=1;rounded=0;orthogonalLoop=1;jettySize=auto;html=1;exitX=1;exitY=0;exitDx=0;exitDy=0;entryX=0;entryY=0;entryDx=0;entryDy=0;" edge="1" parent="1" source="To-FPGZU-gQmSsZxfXFd-155" target="To-FPGZU-gQmSsZxfXFd-160">
          <mxGeometry relative="1" as="geometry">
            <Array as="points">
              <mxPoint x="248" y="2340" />
              <mxPoint x="402" y="2340" />
            </Array>
          </mxGeometry>
        </mxCell>
        <mxCell id="To-FPGZU-gQmSsZxfXFd-155" value="&lt;span style=&quot;font-size: 31px&quot;&gt;&lt;b&gt;CXW&lt;/b&gt;&lt;/span&gt;" style="ellipse;whiteSpace=wrap;html=1;aspect=fixed;" vertex="1" parent="1">
          <mxGeometry x="90" y="2350" width="80" height="80" as="geometry" />
        </mxCell>
        <mxCell id="To-FPGZU-gQmSsZxfXFd-157" value="&lt;b&gt;&lt;font style=&quot;font-size: 23px&quot;&gt;PROBLEM2&lt;/font&gt;&lt;/b&gt;" style="text;html=1;strokeColor=none;fillColor=none;align=center;verticalAlign=middle;whiteSpace=wrap;rounded=0;" vertex="1" parent="1">
          <mxGeometry x="-10" y="2270" width="50" height="50" as="geometry" />
        </mxCell>
        <mxCell id="To-FPGZU-gQmSsZxfXFd-159" value="&lt;b&gt;&lt;font style=&quot;font-size: 23px&quot;&gt;FREE2&lt;/font&gt;&lt;/b&gt;" style="text;html=1;strokeColor=none;fillColor=none;align=center;verticalAlign=middle;whiteSpace=wrap;rounded=0;" vertex="1" parent="1">
          <mxGeometry x="-120" y="2190" width="50" height="50" as="geometry" />
        </mxCell>
        <mxCell id="To-FPGZU-gQmSsZxfXFd-162" style="edgeStyle=orthogonalEdgeStyle;curved=1;rounded=0;orthogonalLoop=1;jettySize=auto;html=1;exitX=0;exitY=1;exitDx=0;exitDy=0;entryX=0.989;entryY=0.839;entryDx=0;entryDy=0;entryPerimeter=0;" edge="1" parent="1" source="To-FPGZU-gQmSsZxfXFd-160" target="To-FPGZU-gQmSsZxfXFd-155">
          <mxGeometry relative="1" as="geometry">
            <Array as="points">
              <mxPoint x="402" y="2440" />
              <mxPoint x="259" y="2440" />
            </Array>
          </mxGeometry>
        </mxCell>
        <mxCell id="To-FPGZU-gQmSsZxfXFd-165" style="edgeStyle=orthogonalEdgeStyle;curved=1;rounded=0;orthogonalLoop=1;jettySize=auto;html=1;exitX=1;exitY=0;exitDx=0;exitDy=0;entryX=0;entryY=0;entryDx=0;entryDy=0;" edge="1" parent="1" source="To-FPGZU-gQmSsZxfXFd-160" target="To-FPGZU-gQmSsZxfXFd-142">
          <mxGeometry relative="1" as="geometry">
            <Array as="points">
              <mxPoint x="458" y="2340" />
              <mxPoint x="612" y="2340" />
            </Array>
          </mxGeometry>
        </mxCell>
        <mxCell id="To-FPGZU-gQmSsZxfXFd-160" value="&lt;span style=&quot;font-size: 31px&quot;&gt;&lt;b&gt;CYX&lt;/b&gt;&lt;/span&gt;" style="ellipse;whiteSpace=wrap;html=1;aspect=fixed;" vertex="1" parent="1">
          <mxGeometry x="390" y="2350" width="80" height="80" as="geometry" />
        </mxCell>
        <mxCell id="To-FPGZU-gQmSsZxfXFd-163" value="&lt;b&gt;&lt;font style=&quot;font-size: 23px&quot;&gt;GO1&lt;/font&gt;&lt;/b&gt;" style="text;html=1;strokeColor=none;fillColor=none;align=center;verticalAlign=middle;whiteSpace=wrap;rounded=0;" vertex="1" parent="1">
          <mxGeometry x="210" y="2290" width="50" height="50" as="geometry" />
        </mxCell>
        <mxCell id="To-FPGZU-gQmSsZxfXFd-164" value="&lt;b&gt;&lt;font style=&quot;font-size: 23px&quot;&gt;END1&lt;/font&gt;&lt;/b&gt;" style="text;html=1;strokeColor=none;fillColor=none;align=center;verticalAlign=middle;whiteSpace=wrap;rounded=0;" vertex="1" parent="1">
          <mxGeometry x="210" y="2450" width="50" height="50" as="geometry" />
        </mxCell>
        <mxCell id="To-FPGZU-gQmSsZxfXFd-166" value="&lt;b&gt;&lt;font style=&quot;font-size: 23px&quot;&gt;PROBLEM1&lt;/font&gt;&lt;/b&gt;" style="text;html=1;strokeColor=none;fillColor=none;align=center;verticalAlign=middle;whiteSpace=wrap;rounded=0;" vertex="1" parent="1">
          <mxGeometry x="510" y="2300" width="50" height="50" as="geometry" />
        </mxCell>
        <mxCell id="To-FPGZU-gQmSsZxfXFd-168" value="&lt;b&gt;&lt;font style=&quot;font-size: 23px&quot;&gt;FREE1&lt;/font&gt;&lt;/b&gt;" style="text;html=1;strokeColor=none;fillColor=none;align=center;verticalAlign=middle;whiteSpace=wrap;rounded=0;" vertex="1" parent="1">
          <mxGeometry x="350" y="2270" width="50" height="50" as="geometry" />
        </mxCell>
        <mxCell id="To-FPGZU-gQmSsZxfXFd-176" style="edgeStyle=orthogonalEdgeStyle;curved=1;rounded=0;orthogonalLoop=1;jettySize=auto;html=1;exitX=0;exitY=0;exitDx=0;exitDy=0;entryX=1;entryY=0;entryDx=0;entryDy=0;" edge="1" parent="1" source="To-FPGZU-gQmSsZxfXFd-173" target="To-FPGZU-gQmSsZxfXFd-150">
          <mxGeometry relative="1" as="geometry">
            <Array as="points">
              <mxPoint x="158" y="2147" />
            </Array>
          </mxGeometry>
        </mxCell>
        <mxCell id="To-FPGZU-gQmSsZxfXFd-178" style="edgeStyle=orthogonalEdgeStyle;curved=1;rounded=0;orthogonalLoop=1;jettySize=auto;html=1;exitX=1;exitY=0.5;exitDx=0;exitDy=0;" edge="1" parent="1" source="To-FPGZU-gQmSsZxfXFd-173" target="To-FPGZU-gQmSsZxfXFd-137">
          <mxGeometry relative="1" as="geometry" />
        </mxCell>
        <mxCell id="To-FPGZU-gQmSsZxfXFd-180" style="edgeStyle=orthogonalEdgeStyle;curved=1;rounded=0;orthogonalLoop=1;jettySize=auto;html=1;exitX=0.5;exitY=1;exitDx=0;exitDy=0;entryX=0.5;entryY=0;entryDx=0;entryDy=0;" edge="1" parent="1" source="To-FPGZU-gQmSsZxfXFd-173" target="To-FPGZU-gQmSsZxfXFd-160">
          <mxGeometry relative="1" as="geometry">
            <Array as="points">
              <mxPoint x="430" y="2215" />
            </Array>
          </mxGeometry>
        </mxCell>
        <mxCell id="To-FPGZU-gQmSsZxfXFd-182" style="edgeStyle=orthogonalEdgeStyle;curved=1;rounded=0;orthogonalLoop=1;jettySize=auto;html=1;exitX=1;exitY=0;exitDx=0;exitDy=0;entryX=0.5;entryY=1;entryDx=0;entryDy=0;" edge="1" parent="1" source="To-FPGZU-gQmSsZxfXFd-173" target="To-FPGZU-gQmSsZxfXFd-127">
          <mxGeometry relative="1" as="geometry">
            <Array as="points">
              <mxPoint x="460" y="2147" />
              <mxPoint x="460" y="2030" />
            </Array>
          </mxGeometry>
        </mxCell>
        <mxCell id="To-FPGZU-gQmSsZxfXFd-173" value="&lt;span style=&quot;font-size: 31px&quot;&gt;&lt;b&gt;BYY&lt;/b&gt;&lt;/span&gt;" style="ellipse;whiteSpace=wrap;html=1;aspect=fixed;" vertex="1" parent="1">
          <mxGeometry x="330" y="2135" width="80" height="80" as="geometry" />
        </mxCell>
        <mxCell id="To-FPGZU-gQmSsZxfXFd-175" value="&lt;b&gt;&lt;font style=&quot;font-size: 23px&quot;&gt;GO1&lt;/font&gt;&lt;/b&gt;" style="text;html=1;strokeColor=none;fillColor=none;align=center;verticalAlign=middle;whiteSpace=wrap;rounded=0;" vertex="1" parent="1">
          <mxGeometry x="245" y="2200" width="50" height="50" as="geometry" />
        </mxCell>
        <mxCell id="To-FPGZU-gQmSsZxfXFd-177" value="&lt;b&gt;&lt;font style=&quot;font-size: 23px&quot;&gt;END1&lt;/font&gt;&lt;/b&gt;" style="text;html=1;strokeColor=none;fillColor=none;align=center;verticalAlign=middle;whiteSpace=wrap;rounded=0;" vertex="1" parent="1">
          <mxGeometry x="260" y="2110" width="50" height="50" as="geometry" />
        </mxCell>
        <mxCell id="To-FPGZU-gQmSsZxfXFd-179" value="&lt;b&gt;&lt;font style=&quot;font-size: 23px&quot;&gt;PROBLEM1&lt;/font&gt;&lt;/b&gt;" style="text;html=1;strokeColor=none;fillColor=none;align=center;verticalAlign=middle;whiteSpace=wrap;rounded=0;" vertex="1" parent="1">
          <mxGeometry x="470" y="2140" width="50" height="50" as="geometry" />
        </mxCell>
        <mxCell id="To-FPGZU-gQmSsZxfXFd-183" value="&lt;b&gt;&lt;font style=&quot;font-size: 23px&quot;&gt;PROBLEM2&lt;/font&gt;&lt;/b&gt;" style="text;html=1;strokeColor=none;fillColor=none;align=center;verticalAlign=middle;whiteSpace=wrap;rounded=0;" vertex="1" parent="1">
          <mxGeometry x="404" y="2210" width="50" height="50" as="geometry" />
        </mxCell>
        <mxCell id="To-FPGZU-gQmSsZxfXFd-184" value="&lt;b&gt;&lt;font style=&quot;font-size: 23px&quot;&gt;END2&lt;/font&gt;&lt;/b&gt;" style="text;html=1;strokeColor=none;fillColor=none;align=center;verticalAlign=middle;whiteSpace=wrap;rounded=0;" vertex="1" parent="1">
          <mxGeometry x="460" y="2024" width="50" height="50" as="geometry" />
        </mxCell>
        <mxCell id="To-FPGZU-gQmSsZxfXFd-188" value="&lt;b&gt;&lt;font style=&quot;font-size: 23px&quot;&gt;GO2&lt;/font&gt;&lt;/b&gt;" style="text;html=1;strokeColor=none;fillColor=none;align=center;verticalAlign=middle;whiteSpace=wrap;rounded=0;" vertex="1" parent="1">
          <mxGeometry x="320" y="2050" width="50" height="50" as="geometry" />
        </mxCell>
        <mxCell id="To-FPGZU-gQmSsZxfXFd-194" style="edgeStyle=orthogonalEdgeStyle;curved=1;rounded=0;orthogonalLoop=1;jettySize=auto;html=1;exitX=1;exitY=0;exitDx=0;exitDy=0;entryX=0;entryY=0;entryDx=0;entryDy=0;" edge="1" parent="1" source="To-FPGZU-gQmSsZxfXFd-191" target="To-FPGZU-gQmSsZxfXFd-196">
          <mxGeometry relative="1" as="geometry">
            <mxPoint x="320" y="1491.4285714285716" as="targetPoint" />
            <Array as="points">
              <mxPoint x="447" y="1492" />
            </Array>
          </mxGeometry>
        </mxCell>
        <mxCell id="To-FPGZU-gQmSsZxfXFd-195" style="edgeStyle=orthogonalEdgeStyle;curved=1;rounded=0;orthogonalLoop=1;jettySize=auto;html=1;exitX=1;exitY=1;exitDx=0;exitDy=0;entryX=0;entryY=1;entryDx=0;entryDy=0;" edge="1" parent="1" source="To-FPGZU-gQmSsZxfXFd-191" target="To-FPGZU-gQmSsZxfXFd-196">
          <mxGeometry relative="1" as="geometry">
            <mxPoint x="320" y="1548.571428571429" as="targetPoint" />
            <Array as="points">
              <mxPoint x="168" y="1608" />
            </Array>
          </mxGeometry>
        </mxCell>
        <mxCell id="To-FPGZU-gQmSsZxfXFd-199" style="edgeStyle=orthogonalEdgeStyle;curved=1;rounded=0;orthogonalLoop=1;jettySize=auto;html=1;exitX=0;exitY=0;exitDx=0;exitDy=0;entryX=0;entryY=0;entryDx=0;entryDy=0;" edge="1" parent="1" source="To-FPGZU-gQmSsZxfXFd-191" target="To-FPGZU-gQmSsZxfXFd-197">
          <mxGeometry relative="1" as="geometry">
            <Array as="points">
              <mxPoint x="112" y="1322" />
            </Array>
          </mxGeometry>
        </mxCell>
        <mxCell id="To-FPGZU-gQmSsZxfXFd-191" value="&lt;font size=&quot;1&quot;&gt;&lt;b style=&quot;font-size: 31px&quot;&gt;A&lt;/b&gt;&lt;/font&gt;" style="ellipse;whiteSpace=wrap;html=1;aspect=fixed;" vertex="1" parent="1">
          <mxGeometry x="100" y="1480" width="80" height="80" as="geometry" />
        </mxCell>
        <mxCell id="To-FPGZU-gQmSsZxfXFd-192" value="&lt;b style=&quot;font-size: 31px&quot;&gt;1&lt;/b&gt;" style="ellipse;whiteSpace=wrap;html=1;aspect=fixed;" vertex="1" parent="1">
          <mxGeometry x="115" y="1495" width="50" height="50" as="geometry" />
        </mxCell>
        <mxCell id="To-FPGZU-gQmSsZxfXFd-193" value="" style="triangle;whiteSpace=wrap;html=1;" vertex="1" parent="1">
          <mxGeometry x="40" y="1480" width="60" height="80" as="geometry" />
        </mxCell>
        <mxCell id="To-FPGZU-gQmSsZxfXFd-209" style="edgeStyle=orthogonalEdgeStyle;curved=1;rounded=0;orthogonalLoop=1;jettySize=auto;html=1;exitX=1;exitY=0;exitDx=0;exitDy=0;entryX=1;entryY=1;entryDx=0;entryDy=0;" edge="1" parent="1" source="To-FPGZU-gQmSsZxfXFd-196" target="To-FPGZU-gQmSsZxfXFd-198">
          <mxGeometry relative="1" as="geometry">
            <Array as="points">
              <mxPoint x="522" y="1552" />
            </Array>
          </mxGeometry>
        </mxCell>
        <mxCell id="To-FPGZU-gQmSsZxfXFd-196" value="&lt;b style=&quot;font-size: 31px&quot;&gt;2&lt;/b&gt;" style="ellipse;whiteSpace=wrap;html=1;aspect=fixed;" vertex="1" parent="1">
          <mxGeometry x="435" y="1540" width="80" height="80" as="geometry" />
        </mxCell>
        <mxCell id="To-FPGZU-gQmSsZxfXFd-204" style="edgeStyle=orthogonalEdgeStyle;curved=1;rounded=0;orthogonalLoop=1;jettySize=auto;html=1;exitX=0.5;exitY=1;exitDx=0;exitDy=0;entryX=1;entryY=0;entryDx=0;entryDy=0;" edge="1" parent="1" source="To-FPGZU-gQmSsZxfXFd-197" target="To-FPGZU-gQmSsZxfXFd-191">
          <mxGeometry relative="1" as="geometry">
            <Array as="points">
              <mxPoint x="280" y="1490" />
              <mxPoint x="168" y="1490" />
            </Array>
          </mxGeometry>
        </mxCell>
        <mxCell id="To-FPGZU-gQmSsZxfXFd-211" style="edgeStyle=orthogonalEdgeStyle;curved=1;rounded=0;orthogonalLoop=1;jettySize=auto;html=1;exitX=1;exitY=0;exitDx=0;exitDy=0;entryX=0.5;entryY=0;entryDx=0;entryDy=0;" edge="1" parent="1" source="To-FPGZU-gQmSsZxfXFd-197" target="To-FPGZU-gQmSsZxfXFd-198">
          <mxGeometry relative="1" as="geometry" />
        </mxCell>
        <mxCell id="To-FPGZU-gQmSsZxfXFd-197" value="&lt;b style=&quot;font-size: 31px&quot;&gt;3&lt;/b&gt;" style="ellipse;whiteSpace=wrap;html=1;aspect=fixed;" vertex="1" parent="1">
          <mxGeometry x="240" y="1310" width="80" height="80" as="geometry" />
        </mxCell>
        <mxCell id="To-FPGZU-gQmSsZxfXFd-216" style="edgeStyle=orthogonalEdgeStyle;curved=1;rounded=0;orthogonalLoop=1;jettySize=auto;html=1;exitX=0;exitY=1;exitDx=0;exitDy=0;entryX=1;entryY=1;entryDx=0;entryDy=0;" edge="1" parent="1" source="To-FPGZU-gQmSsZxfXFd-198" target="To-FPGZU-gQmSsZxfXFd-197">
          <mxGeometry relative="1" as="geometry">
            <Array as="points">
              <mxPoint x="308" y="1408" />
            </Array>
          </mxGeometry>
        </mxCell>
        <mxCell id="To-FPGZU-gQmSsZxfXFd-198" value="&lt;b style=&quot;font-size: 31px&quot;&gt;4&lt;/b&gt;" style="ellipse;whiteSpace=wrap;html=1;aspect=fixed;" vertex="1" parent="1">
          <mxGeometry x="454" y="1340" width="80" height="80" as="geometry" />
        </mxCell>
        <mxCell id="To-FPGZU-gQmSsZxfXFd-202" value="&lt;b&gt;&lt;font style=&quot;font-size: 23px&quot;&gt;PROBLEM1&lt;/font&gt;&lt;/b&gt;" style="text;html=1;strokeColor=none;fillColor=none;align=center;verticalAlign=middle;whiteSpace=wrap;rounded=0;" vertex="1" parent="1">
          <mxGeometry x="80" y="1325" width="50" height="50" as="geometry" />
        </mxCell>
        <mxCell id="To-FPGZU-gQmSsZxfXFd-203" value="&lt;b&gt;&lt;font style=&quot;font-size: 23px&quot;&gt;FREE1&lt;/font&gt;&lt;/b&gt;" style="text;html=1;strokeColor=none;fillColor=none;align=center;verticalAlign=middle;whiteSpace=wrap;rounded=0;" vertex="1" parent="1">
          <mxGeometry x="220" y="1400" width="50" height="50" as="geometry" />
        </mxCell>
        <mxCell id="To-FPGZU-gQmSsZxfXFd-207" value="&lt;b&gt;&lt;font style=&quot;font-size: 23px&quot;&gt;PROBLEM2&lt;/font&gt;&lt;/b&gt;" style="text;html=1;strokeColor=none;fillColor=none;align=center;verticalAlign=middle;whiteSpace=wrap;rounded=0;" vertex="1" parent="1">
          <mxGeometry x="330" y="1450" width="50" height="50" as="geometry" />
        </mxCell>
        <mxCell id="To-FPGZU-gQmSsZxfXFd-208" value="&lt;b&gt;&lt;font style=&quot;font-size: 23px&quot;&gt;FREE2&lt;br&gt;&lt;/font&gt;&lt;/b&gt;" style="text;html=1;strokeColor=none;fillColor=none;align=center;verticalAlign=middle;whiteSpace=wrap;rounded=0;" vertex="1" parent="1">
          <mxGeometry x="285" y="1555" width="50" height="50" as="geometry" />
        </mxCell>
        <mxCell id="To-FPGZU-gQmSsZxfXFd-210" value="&lt;b&gt;&lt;font style=&quot;font-size: 23px&quot;&gt;PROBLEM1&lt;/font&gt;&lt;/b&gt;" style="text;html=1;strokeColor=none;fillColor=none;align=center;verticalAlign=middle;whiteSpace=wrap;rounded=0;" vertex="1" parent="1">
          <mxGeometry x="550" y="1445" width="50" height="50" as="geometry" />
        </mxCell>
        <mxCell id="To-FPGZU-gQmSsZxfXFd-212" value="&lt;b&gt;&lt;font style=&quot;font-size: 23px&quot;&gt;PROBLEM2&lt;/font&gt;&lt;/b&gt;" style="text;html=1;strokeColor=none;fillColor=none;align=center;verticalAlign=middle;whiteSpace=wrap;rounded=0;" vertex="1" parent="1">
          <mxGeometry x="360" y="1275" width="50" height="50" as="geometry" />
        </mxCell>
        <mxCell id="To-FPGZU-gQmSsZxfXFd-213" value="&lt;b&gt;&lt;font style=&quot;font-size: 23px&quot;&gt;FREE2&lt;br&gt;&lt;/font&gt;&lt;/b&gt;" style="text;html=1;strokeColor=none;fillColor=none;align=center;verticalAlign=middle;whiteSpace=wrap;rounded=0;" vertex="1" parent="1">
          <mxGeometry x="360" y="1360" width="50" height="50" as="geometry" />
        </mxCell>
        <mxCell id="To-FPGZU-gQmSsZxfXFd-214" value="&lt;font style=&quot;font-size: 40px&quot;&gt;AUTOMATO 1&lt;/font&gt;" style="text;html=1;strokeColor=none;fillColor=none;align=center;verticalAlign=middle;whiteSpace=wrap;rounded=0;" vertex="1" parent="1">
          <mxGeometry x="235" y="-100" width="275" height="30" as="geometry" />
        </mxCell>
        <mxCell id="To-FPGZU-gQmSsZxfXFd-215" value="&lt;font style=&quot;font-size: 40px&quot;&gt;Automato com minimamente restritivo&lt;/font&gt;" style="text;html=1;strokeColor=none;fillColor=none;align=center;verticalAlign=middle;whiteSpace=wrap;rounded=0;" vertex="1" parent="1">
          <mxGeometry x="130" y="1770" width="495" height="30" as="geometry" />
        </mxCell>
      </root>
    </mxGraphModel>
  </diagram>
</mxfile>
